<svg width="34" height="34" viewBox="0 0 34 34" fill="none" xmlns="http://www.w3.org/2000/svg">
<g opacity="0.3" clip-path="url(#clip0)">
<path d="M16.9706 11.7238C16.8386 11.7233 16.7078 11.7489 16.5857 11.7992C16.4636 11.8494 16.3527 11.9234 16.2594 12.0167C16.166 12.1101 16.0921 12.221 16.0418 12.3431C15.9915 12.4651 15.9659 12.5959 15.9665 12.7279L15.9736 15.9736L12.7279 15.9665C12.4616 15.9665 12.2062 16.0723 12.0179 16.2606C11.8296 16.4489 11.7238 16.7043 11.7238 16.9706C11.7238 17.2369 11.8296 17.4923 12.0179 17.6806C12.2062 17.8689 12.4616 17.9747 12.7279 17.9747L15.9736 17.9676L15.9665 21.2132C15.9659 21.3452 15.9915 21.476 16.0418 21.5981C16.0921 21.7202 16.166 21.8311 16.2594 21.9244C16.3527 22.0178 16.4636 22.0917 16.5857 22.142C16.7078 22.1923 16.8386 22.2179 16.9706 22.2173C17.1026 22.2179 17.2334 22.1923 17.3555 22.142C17.4775 22.0917 17.5884 22.0178 17.6818 21.9244C17.7751 21.8311 17.8491 21.7202 17.8993 21.5981C17.9496 21.476 17.9752 21.3452 17.9747 21.2132L17.9676 17.9676L21.2132 17.9747C21.3452 17.9752 21.476 17.9496 21.5981 17.8993C21.7202 17.8491 21.8311 17.7751 21.9244 17.6818C22.0178 17.5884 22.0917 17.4775 22.142 17.3555C22.1923 17.2334 22.2179 17.1026 22.2173 16.9706C22.2179 16.8386 22.1923 16.7078 22.142 16.5857C22.0917 16.4636 22.0178 16.3527 21.9244 16.2594C21.8311 16.166 21.7202 16.0921 21.5981 16.0418C21.476 15.9916 21.3452 15.9659 21.2132 15.9665L17.9676 15.9736L17.9747 12.7279C17.9752 12.5959 17.9496 12.4651 17.8993 12.3431C17.8491 12.221 17.7751 12.1101 17.6818 12.0167C17.5884 11.9234 17.4775 11.8494 17.3555 11.7992C17.2334 11.7489 17.1026 11.7233 16.9706 11.7238ZM16.9706 6.97209C15.6429 6.94902 14.324 7.19058 13.0907 7.68269C11.8574 8.1748 10.7345 8.9076 9.78744 9.83834C8.84039 10.7691 8.08819 11.8791 7.57472 13.1036C7.06125 14.3282 6.7968 15.6427 6.7968 16.9706C6.7968 18.2984 7.06125 19.613 7.57472 20.8375C8.08819 22.0621 8.84039 23.1721 9.78744 24.1028C10.7345 25.0336 11.8574 25.7664 13.0907 26.2585C14.324 26.7506 15.6429 26.9921 16.9706 26.9691C18.2982 26.9921 19.6172 26.7506 20.8505 26.2585C22.0837 25.7664 23.2067 25.0336 24.1537 24.1028C25.1008 23.1721 25.853 22.0621 26.3664 20.8375C26.8799 19.613 27.1444 18.2984 27.1444 16.9706C27.1444 15.6427 26.8799 14.3282 26.3664 13.1036C25.853 11.8791 25.1008 10.7691 24.1537 9.83834C23.2067 8.9076 22.0837 8.1748 20.8505 7.68269C19.6172 7.19058 18.2982 6.94901 16.9706 6.97209ZM24.975 16.9706C24.9761 18.8213 24.3354 20.6152 23.1621 22.0466C21.9888 23.4779 20.3555 24.4582 18.5406 24.8204C16.7256 25.1825 14.8412 24.9042 13.2084 24.0328C11.5756 23.1614 10.2955 21.7509 9.58605 20.0415C8.87665 18.332 8.78188 16.4296 9.31788 14.6581C9.85389 12.8867 10.9875 11.3559 12.5256 10.3265C14.0637 9.29716 15.9111 8.83295 17.7531 9.01296C19.5951 9.19297 21.3177 10.0061 22.6274 11.3137C23.3733 12.0546 23.9649 12.936 24.3678 13.907C24.7708 14.878 24.9772 15.9193 24.975 16.9706Z" fill="black"/>
</g>
<defs>
<clipPath id="clip0">
<rect width="24" height="24" fill="white" transform="translate(0 16.9706) rotate(-45)"/>
</clipPath>
</defs>
</svg>
