<svg width="18" height="20" viewBox="0 0 18 20" fill="none" xmlns="http://www.w3.org/2000/svg">
<g opacity="0.33">
<path d="M5.56667 12.2015H7.79728C7.99447 12.2015 8.18359 12.1178 8.32303 11.9688C8.46247 11.8198 8.54081 11.6177 8.54081 11.407C8.54081 11.1962 8.46247 10.9941 8.32303 10.8451C8.18359 10.6961 7.99447 10.6124 7.79728 10.6124H5.56667C5.36947 10.6124 5.18035 10.6961 5.04091 10.8451C4.90147 10.9941 4.82314 11.1962 4.82314 11.407C4.82314 11.6177 4.90147 11.8198 5.04091 11.9688C5.18035 12.1178 5.36947 12.2015 5.56667 12.2015ZM14.4891 4.2558H4.0796C3.48801 4.2558 2.92065 4.50694 2.50233 4.95397C2.08401 5.40101 1.849 6.00732 1.849 6.63952V13.7907C1.849 14.4229 2.08401 15.0292 2.50233 15.4762C2.92065 15.9233 3.48801 16.1744 4.0796 16.1744H14.4891C15.0807 16.1744 15.648 15.9233 16.0664 15.4762C16.4847 15.0292 16.7197 14.4229 16.7197 13.7907V6.63952C16.7197 6.00732 16.4847 5.40101 16.0664 4.95397C15.648 4.50694 15.0807 4.2558 14.4891 4.2558ZM15.2326 13.7907C15.2326 14.0014 15.1543 14.2035 15.0148 14.3525C14.8754 14.5015 14.6863 14.5853 14.4891 14.5853H4.0796C3.88241 14.5853 3.69328 14.5015 3.55384 14.3525C3.4144 14.2035 3.33607 14.0014 3.33607 13.7907V9.02324H15.2326V13.7907ZM15.2326 7.43409H3.33607V6.63952C3.33607 6.42879 3.4144 6.22668 3.55384 6.07767C3.69328 5.92866 3.88241 5.84495 4.0796 5.84495H14.4891C14.6863 5.84495 14.8754 5.92866 15.0148 6.07767C15.1543 6.22668 15.2326 6.42879 15.2326 6.63952V7.43409Z" fill="#F1A132"/>
</g>
</svg>
