<svg width="13" height="16" viewBox="0 0 13 16" fill="none" xmlns="http://www.w3.org/2000/svg">
<path d="M5.86429 4.00388L5.86429 13.213L4.16159 11.3855C4.09227 11.3114 4.00997 11.2526 3.91939 11.2125C3.82881 11.1724 3.73173 11.1518 3.63368 11.1518C3.53564 11.1518 3.43856 11.1724 3.34798 11.2125C3.2574 11.2526 3.1751 11.3114 3.10577 11.3855C3.03645 11.4595 2.98146 11.5475 2.94394 11.6443C2.90642 11.7411 2.88711 11.8448 2.88711 11.9496C2.88711 12.0544 2.90642 12.1581 2.94394 12.2549C2.98146 12.3517 3.03645 12.4397 3.10577 12.5138L6.07991 15.6921C6.15063 15.7644 6.23401 15.8211 6.32528 15.8589C6.5063 15.9384 6.70934 15.9384 6.89036 15.8589C6.98163 15.8211 7.06502 15.7644 7.13573 15.6921L10.1099 12.5138C10.1796 12.4399 10.2349 12.352 10.2726 12.2552C10.3104 12.1584 10.3298 12.0545 10.3298 11.9496C10.3298 11.8447 10.3104 11.7409 10.2726 11.644C10.2349 11.5472 10.1796 11.4593 10.1099 11.3855C10.0407 11.311 9.95851 11.2519 9.86791 11.2115C9.7773 11.1712 9.68011 11.1504 9.58196 11.1504C9.4838 11.1504 9.38662 11.1712 9.29601 11.2115C9.20541 11.2519 9.12317 11.311 9.05405 11.3855L7.35136 13.213L7.35136 4.00388C7.35136 3.79314 7.27302 3.59104 7.13358 3.44203C6.99414 3.29302 6.80502 3.2093 6.60782 3.2093C6.41062 3.2093 6.2215 3.29302 6.08206 3.44203C5.94262 3.59104 5.86429 3.79314 5.86429 4.00388ZM0.659546 0.825582C0.659546 1.03632 0.737882 1.23842 0.877322 1.38743C1.01676 1.53644 1.20588 1.62015 1.40308 1.62015H11.8126C12.0098 1.62015 12.1989 1.53644 12.3383 1.38743C12.4778 1.23842 12.5561 1.03632 12.5561 0.825582C12.5561 0.614847 12.4778 0.412744 12.3383 0.263732C12.1989 0.11472 12.0098 0.0310078 11.8126 0.0310078H1.40308C1.20588 0.0310078 1.01676 0.11472 0.877322 0.263732C0.737882 0.412744 0.659546 0.614847 0.659546 0.825582Z" fill="white"/>
</svg>
