<svg width="18" height="20" viewBox="0 0 18 20" fill="none" xmlns="http://www.w3.org/2000/svg">
<g opacity="0.33">
<path d="M9.75656 13.9496L9.75656 4.74045L11.4593 6.56797C11.5286 6.64205 11.6109 6.70082 11.7015 6.74091C11.792 6.78101 11.8891 6.80164 11.9872 6.80164C12.0852 6.80164 12.1823 6.78101 12.2729 6.74091C12.3634 6.70082 12.4457 6.64205 12.5151 6.56797C12.5844 6.49388 12.6394 6.40593 12.6769 6.30913C12.7144 6.21234 12.7337 6.10859 12.7337 6.00382C12.7337 5.89905 12.7144 5.7953 12.6769 5.6985C12.6394 5.60171 12.5844 5.51376 12.5151 5.43967L9.54094 2.26138C9.47022 2.18904 9.38684 2.13233 9.29557 2.09452C9.11455 2.01504 8.91151 2.01504 8.73048 2.09452C8.63921 2.13233 8.55583 2.18904 8.48512 2.26138L5.51098 5.43967C5.44129 5.51354 5.38597 5.60142 5.34823 5.69824C5.31048 5.79507 5.29104 5.89892 5.29104 6.00382C5.29104 6.10871 5.31048 6.21257 5.34823 6.30939C5.38597 6.40622 5.44129 6.4941 5.51098 6.56797C5.5801 6.64244 5.66234 6.70155 5.75294 6.74189C5.84355 6.78223 5.94073 6.803 6.03889 6.803C6.13705 6.803 6.23423 6.78223 6.32484 6.74189C6.41544 6.70155 6.49768 6.64244 6.5668 6.56797L8.26949 4.74045L8.26949 13.9496C8.26949 14.1603 8.34783 14.3624 8.48727 14.5114C8.62671 14.6604 8.81583 14.7441 9.01303 14.7441C9.21023 14.7441 9.39935 14.6604 9.53879 14.5114C9.67823 14.3624 9.75656 14.1603 9.75656 13.9496ZM14.9613 17.1278C14.9613 16.9171 14.883 16.715 14.7435 16.566C14.6041 16.417 14.415 16.3333 14.2178 16.3333L3.80829 16.3333C3.61109 16.3333 3.42197 16.417 3.28253 16.566C3.14309 16.715 3.06475 16.9171 3.06475 17.1278C3.06475 17.3386 3.14309 17.5407 3.28253 17.6897C3.42197 17.8387 3.61109 17.9224 3.80829 17.9224L14.2178 17.9224C14.415 17.9224 14.6041 17.8387 14.7435 17.6897C14.883 17.5407 14.9613 17.3386 14.9613 17.1278Z" fill="white"/>
</g>
</svg>
